Coordinates	
version=1	
nRows=375	
nColumns=2	
inDegrees=yes	
endheader	
time	shoulder_elv
1.254805782	24.11021029
1.257017071	24.20392312
1.258983084	24.28626486
1.260949096	24.36767702
1.263367548	24.46655433
1.265785999	24.56402117
1.26780807	24.64443449
1.26983014	24.72385658
1.271852211	24.80229096
1.274606069	24.90751328
1.276626726	24.98355109
1.278647383	25.05859175
1.281140461	25.14980671
1.28335208	25.22944923
1.2855637	25.30789798
1.287775319	25.38514273
1.289986938	25.46119021
1.292198558	25.53602893
1.294410177	25.60966716
1.296621797	25.68209189
1.298605759	25.74603729
1.300589721	25.80900443
1.302573684	25.87099754
1.305367073	25.95662367
1.307399158	26.01769676
1.309431244	26.07773855
1.31190671	26.14949228
1.314089698	26.21149531
1.316272686	26.27231054
1.318455673	26.3319288
1.320638661	26.39035643
1.322821649	26.44758415
1.325004637	26.50361857
1.327187624	26.55845025
1.329370612	26.61208612
1.3315536	26.66451656
1.333736588	26.71574885
1.335919576	26.76577312
1.338102563	26.81459706
1.340285551	26.86221051
1.342468539	26.90862161
1.344651527	26.95381988
1.346834514	26.99781394
1.349017502	27.04059294
1.35120049	27.08216602
1.353383478	27.12252192
1.355566465	27.16167037
1.357749453	27.19959963
1.359932441	27.23632006
1.362115429	27.2718194
1.364298416	27.30610869
1.366481404	27.33917511
1.368664392	27.37103041
1.370625489	27.39860386
1.372586586	27.42519762
1.374989216	27.45643515
1.377391846	27.48619854
1.379363649	27.50951647
1.381335453	27.53184189
1.38377427	27.55807422
1.386213087	27.58278557
1.388105147	27.60090184
1.389997208	27.61810327
1.392557416	27.63991476
1.39485403	27.65805193
1.397150643	27.67483103
1.399126624	27.68818817
1.401102606	27.70053942
1.40348968	27.71412579
1.405876754	27.72624539
1.407847025	27.73515018
1.409817297	27.74305468
1.412235297	27.75139537
1.414653297	27.7582308
1.416572162	27.76259051
1.418491027	27.76600147
1.420978259	27.76901797
1.423465492	27.77044262
1.42533584	27.77047163
1.427206189	27.7695997
1.429776756	27.76693852
1.432347323	27.76257848
1.434151873	27.758509
1.435956423	27.75360149
1.438653978	27.74471032
1.440997438	27.73547026
1.443340899	27.72482691
1.445320132	27.71473788
1.447299364	27.70364948
1.449714065	27.68876121
1.452128765	27.67238513
1.454049616	27.65828935
1.455970467	27.64325412
1.458482209	27.62216972
1.460993951	27.59947858
1.462841119	27.58175973
1.464688288	27.56317436
1.467340081	27.53497152
1.469551133	27.51008939
1.471762185	27.48396052
1.473973237	27.45659206
1.476184289	27.42797796
1.478395341	27.39812704
1.480606393	27.36703151
1.482817445	27.33470227
1.485028497	27.3011294
1.486982814	27.27043025
1.488937131	27.23876227
1.491331304	27.19865495
1.493725477	27.15709847
1.49573339	27.12113644
1.497741304	27.08415615
1.499749217	27.04616393
1.502481357	26.99283938
1.504492158	26.95239982
1.506502958	26.91094404
1.508978014	26.85852993
1.511182574	26.81055134
1.513387134	26.76136313
1.515591694	26.7109587
1.517796254	26.65934849
1.520000814	26.60652455
1.522205374	26.5524989
1.524409934	26.49726209
1.526391666	26.44658612
1.528373398	26.39493531
1.53035513	26.34231653
1.533145351	26.26658689
1.535178931	26.21018844
1.537212511	26.1527707
1.539688577	26.08149221
1.541875272	26.01729178
1.544061968	25.9519259
1.546248663	25.88538887
1.548435359	25.81769055
1.550622054	25.74882518
1.55280875	25.67880281
1.554995445	25.60761765
1.557182141	25.53527989
1.559368836	25.4617838
1.561555532	25.38713963
1.563742227	25.31134175
1.565928923	25.23440045
1.568115618	25.15631024
1.570302314	25.0770814
1.572489009	24.99670862
1.574675704	24.91520212
1.5768624	24.83255685
1.579049095	24.74878291
1.581235791	24.66387555
1.583422486	24.57784468
1.585609182	24.49068594
1.587795877	24.40240901
1.589982573	24.31300992
1.592169268	24.22249809
1.594355964	24.13087003
1.596542659	24.03813483
1.598729355	23.94428948
1.60091605	23.84934277
1.603102745	23.75329218
1.605289441	23.65614614
1.607476136	23.5579027
1.609662832	23.4585699
1.611849527	23.35814633
1.614036223	23.25663968
1.616671109	23.1328877
1.618593479	23.04161607
1.620515849	22.94951081
1.623145978	22.82215585
1.625776107	22.69325268
1.627566298	22.60463904
1.62935649	22.51531177
1.632220163	22.3709487
1.634646482	22.24721869
1.6370728	22.12220183
1.639060977	22.01879755
1.641049154	21.91453661
1.643566834	21.78127615
1.646084513	21.64665081
1.64801446	21.54252559
1.649944406	21.43760606
1.652578172	21.29314004
1.654947835	21.1619041
1.657317498	21.02947684
1.659315828	20.91688745
1.661314158	20.80345789
1.66380946	20.66065209
1.666304763	20.51655021
1.66830136	20.40032578
1.670297958	20.28327841
1.672844668	20.13280019
1.675391379	19.9809981
1.677320679	19.86512807
1.679249979	19.74850496
1.681914158	19.58623549
1.684578336	19.42254813
1.686432381	19.30781009
1.688286427	19.1923917
1.691123605	19.01446929
1.693530512	18.86229875
1.695937419	18.70901185
1.698059969	18.57290652
1.700182519	18.43594499
1.702305069	18.29812577
1.704966445	18.12412314
1.707130382	17.98166243
1.709294319	17.83833515
1.711458256	17.69414048
1.714072571	17.51879342
1.716223692	17.37357759
1.718374812	17.22753051
1.720525933	17.08065161
1.723193753	16.8973533
1.725349605	16.74831076
1.727505456	16.59846
1.729661307	16.44780091
1.732351545	16.25868041
1.734506834	16.10627364
1.736662122	15.95308763
1.73881741	15.79912269
1.741540973	15.60346665
1.743697703	15.44766533
1.745854432	15.29111426
1.748011161	15.13381426
1.750765073	14.93188952
1.752922953	14.77283251
1.755080832	14.61305768
1.757238712	14.45256639
1.760024186	14.24435901
1.762183608	14.08214565
1.76434303	13.91924856
1.766502452	13.75566969
1.769318941	13.54131421
1.771479407	13.37612213
1.773639874	13.21028336
1.77580034	13.0438005
1.778647229	12.82346204
1.780802597	12.65592372
1.782957966	12.48778203
1.785113334	12.31904022
1.787996611	12.09239705
1.790174052	11.92055059
1.792351492	11.74813419
1.794528933	11.57515621
1.797403753	11.3459462
1.799612936	11.16917264
1.801822118	10.99186801
1.8040313	10.8140374
1.806848344	10.58654054
1.809039469	10.40902953
1.811230595	10.23104839
1.81342172	10.052603
1.816329594	9.815098301
1.818470729	9.639727576
1.820611863	9.463961134
1.823262557	9.245827386
1.825644297	9.049345724
1.828026037	8.852418771
1.830407778	8.655075773
1.832789518	8.457323982
1.835171258	8.259194839
1.837552998	8.060694739
1.839934739	7.861858008
1.842316479	7.662689421
1.844698219	7.463225036
1.847079959	7.26347014
1.849461699	7.063462004
1.85184344	6.86320605
1.853959611	6.685102464
1.856075783	6.506837759
1.85869426	6.286070023
1.861312738	6.065113275
1.863569661	5.874547854
1.865826584	5.683882972
1.868083507	5.493147674
1.871082506	5.239618024
1.873062205	5.072235405
1.875041904	4.904844135
1.878025804	4.652570512
1.881009704	4.40036741
1.882969562	4.234787686
1.88492942	4.069273475
1.887908889	3.817820539
1.890888358	3.566614472
1.892979067	3.390523879
1.895069775	3.214597737
1.897853152	2.980684894
1.90063653	2.747149756
1.903036341	2.546142196
1.905436152	2.345478687
1.907835963	2.145197014
1.910235774	1.945326411
1.912635584	1.74589947
1.915035395	1.546944965
1.917435206	1.348499471
1.919835017	1.150596404
1.922234828	0.953267102
1.924634639	0.75654331
1.927323986	0.536849975
1.930013333	0.318018099
1.931794584	0.173573793
1.933575836	0.029535077
1.93675497	-0.226473038
1.938645153	-0.378007352
1.940535337	-0.529014822
1.94293958	-0.720305331
1.945343824	-0.910673224
1.947748068	-1.100091338
1.950152311	-1.28851085
1.952556555	-1.475903645
1.954960798	-1.662231203
1.957019316	-1.820881462
1.959077833	-1.978700649
1.961561831	-2.167988293
1.963692144	-2.329297779
1.965822456	-2.489622522
1.967952769	-2.648942666
1.970287389	-2.82234907
1.972295498	-2.970484643
1.974303606	-3.117645864
1.976311715	-3.263816626
1.978319823	-3.408967553
1.980327932	-3.553080078
1.98233604	-3.696125646
1.984344149	-3.8380857
1.986352257	-3.978930932
1.988360366	-4.118643378
1.990368474	-4.257194209
1.992376583	-4.394564243
1.994384692	-4.530725074
1.9963928	-4.665657393
1.998808663	-4.82632008
2.000917815	-4.965071067
2.003026968	-5.102376151
2.00513612	-5.238213974
2.007245272	-5.37255051
2.009354425	-5.50536666
2.011250179	-5.623416176
2.013145934	-5.740195722
2.015041688	-5.855679344
2.016937443	-5.969851775
2.019226949	-6.105956446
2.021230772	-6.223459253
2.023234595	-6.339420561
2.025238418	-6.45382421
2.027242241	-6.566641429
2.029246065	-6.677857201
2.031249888	-6.787440613
2.033253711	-6.895378679
2.035257534	-7.001641088
2.037261357	-7.106214403
2.03926518	-7.20906857
2.041269003	-7.310191467
2.043272827	-7.409552432
2.04527665	-7.507140473
2.047280473	-7.602926544
2.049284296	-7.696897624
2.051288119	-7.789026703
2.053291942	-7.879302326
2.055295765	-7.967695608
2.057299588	-8.054197283
2.059303412	-8.138779488
2.061307235	-8.221432384
2.063311058	-8.302129356
2.065314881	-8.380860929
2.067318704	-8.457601864
2.069322527	-8.532342243
2.07132635	-8.605058397
2.073330173	-8.675742644
2.075333997	-8.744368881
2.07733782	-8.810932117
2.079341643	-8.875408266
2.081345466	-8.93779018
2.083349289	-8.998056398
2.085353112	-9.056201985
